<?xml version="1.0" encoding="utf-8"?>
<!-- Generator: Adobe Illustrator 28.0.0, SVG Export Plug-In . SVG Version: 6.00 Build 0)  -->
<svg version="1.1" id="圖層_1" xmlns="http://www.w3.org/2000/svg" xmlns:xlink="http://www.w3.org/1999/xlink" x="0px" y="0px"
	 viewBox="0 0 21.2 21.2" style="enable-background:new 0 0 21.2 21.2;" xml:space="preserve">
<style type="text/css">
	.st0{fill:#FFFFFF;}
</style>
<path class="st0" d="M17.5,21.2H5.1c-2.1,0-3.7-1.7-3.7-3.7v-3.1H1c-0.6,0-1-0.4-1-1s0.4-1,1-1h0.4v-2.1H1c-0.6,0-1-0.4-1-1
	s0.4-1,1-1h0.4V6.1H1c-0.6,0-1-0.4-1-1s0.4-1,1-1h0.4V3.7C1.4,1.7,3.1,0,5.1,0h12.3c2.1,0,3.7,1.7,3.7,3.7v13.7
	C21.2,19.5,19.5,21.2,17.5,21.2z M8.2,19.2h9.3c1,0,1.7-0.8,1.7-1.7V3.7c0-1-0.8-1.7-1.7-1.7H8.2V19.2z M3.4,14.3v3.1
	c0,1,0.8,1.7,1.7,1.7h1.1V2H5.1c-1,0-1.7,0.8-1.7,1.7v0.4h0.4c0.6,0,1,0.4,1,1s-0.4,1-1,1H3.4v2.1h0.4c0.6,0,1,0.4,1,1s-0.4,1-1,1
	H3.4v2.1h0.4c0.6,0,1,0.4,1,1s-0.4,1-1,1H3.4z M16.1,10.2h-4.8c-0.6,0-1-0.4-1-1s0.4-1,1-1h4.8c0.6,0,1,0.4,1,1S16.6,10.2,16.1,10.2
	z M16.1,6.1h-4.8c-0.6,0-1-0.4-1-1s0.4-1,1-1h4.8c0.6,0,1,0.4,1,1S16.6,6.1,16.1,6.1z"/>
</svg>
