<?xml version="1.0" encoding="utf-8"?>
<!-- Generator: Adobe Illustrator 28.0.0, SVG Export Plug-In . SVG Version: 6.00 Build 0)  -->
<svg version="1.1" id="圖層_1" xmlns="http://www.w3.org/2000/svg" xmlns:xlink="http://www.w3.org/1999/xlink" x="0px" y="0px"
	 viewBox="0 0 21.2 21.2" style="enable-background:new 0 0 21.2 21.2;" xml:space="preserve">
<style type="text/css">
	.st0{fill:#FFFFFF;}
</style>
<path class="st0" d="M20.2,21.2H1c-0.6,0-1-0.4-1-1V17c0-0.6,0.4-1,1-1h19.2c0.6,0,1,0.4,1,1v3.2C21.2,20.8,20.8,21.2,20.2,21.2z
	 M2,19.2h17.2V18H2V19.2z M18.6,14.6c-0.6,0-1-0.4-1-1v-2.7c0-0.6,0.4-1,1-1s1,0.4,1,1v2.7C19.6,14.2,19.2,14.6,18.6,14.6z
	 M13.3,14.6c-0.6,0-1-0.4-1-1v-2.7c0-0.6,0.4-1,1-1s1,0.4,1,1v2.7C14.3,14.2,13.8,14.6,13.3,14.6z M7.9,14.6c-0.6,0-1-0.4-1-1v-2.7
	c0-0.6,0.4-1,1-1s1,0.4,1,1v2.7C8.9,14.2,8.5,14.6,7.9,14.6z M2.6,14.6c-0.6,0-1-0.4-1-1v-2.7c0-0.6,0.4-1,1-1s1,0.4,1,1v2.7
	C3.6,14.2,3.2,14.6,2.6,14.6z M20.2,8.4H1c-0.6,0-1-0.4-1-1V5.3c0-0.4,0.2-0.7,0.6-0.9l9.2-4.3C10,0,10.3,0,10.6,0.1l10,4.3
	c0.4,0.2,0.6,0.5,0.6,0.9v2.1C21.2,8,20.8,8.4,20.2,8.4z M2,6.4h17.2V5.9l-9-3.8L2,5.9V6.4z"/>
</svg>
