<?xml version="1.0" encoding="utf-8"?>
<!-- Generator: Adobe Illustrator 28.0.0, SVG Export Plug-In . SVG Version: 6.00 Build 0)  -->
<svg version="1.1" id="圖層_1" xmlns="http://www.w3.org/2000/svg" xmlns:xlink="http://www.w3.org/1999/xlink" x="0px" y="0px"
	 viewBox="0 0 21.2 18.5" style="enable-background:new 0 0 21.2 18.5;" xml:space="preserve">
<style type="text/css">
	.st0{fill:#707070;}
</style>
<path class="st0" d="M10.3,18.5c-0.1,0-0.3,0-0.4-0.1c0,0,0,0,0,0c0,0,0,0,0,0c-0.1,0-0.2-0.1-0.3-0.2l0,0c0,0,0,0,0,0c0,0,0,0,0,0
	l-1.5-1.5c-0.6-0.6-1.5-1-2.4-1H2.1c-1.2,0-2.1-0.9-2.1-2.1V2.1C0,0.9,0.9,0,2.1,0h4.2c1.4,0,2.8,0.6,3.8,1.6l0.1,0.1
	c0.1,0,0.2,0,0.3,0l0.1-0.1c1-1,2.4-1.6,3.8-1.6h4.8c1.2,0,2.1,0.9,2.1,2.1v11.5c0,1.2-0.9,2.1-2.1,2.1h-4.2c-0.9,0-1.8,0.4-2.4,1
	L11,18.2l0,0c0,0,0,0,0,0h0c0,0,0,0,0,0l0,0c0,0,0,0,0,0c0,0,0,0,0,0c0,0,0,0,0,0c-0.1,0.1-0.2,0.2-0.3,0.2l0,0c0,0,0,0,0,0
	C10.6,18.4,10.5,18.5,10.3,18.5z M11.3,3.6v11.5c1-0.9,2.2-1.3,3.6-1.3h4.2c0.1,0,0.1,0,0.1-0.1V2.1c0-0.1,0-0.1-0.1-0.1h-4.8
	c-0.9,0-1.8,0.4-2.4,1L11.3,3.6z M2.1,2C2,2,2,2,2.1,2L2,13.6c0,0.1,0,0.1,0.1,0.1h3.7c1.3,0,2.6,0.5,3.6,1.3V3.6L8.7,3
	C8.1,2.4,7.2,2,6.3,2H2.1z"/>
</svg>
