<?xml version="1.0" encoding="utf-8"?>
<!-- Generator: Adobe Illustrator 28.0.0, SVG Export Plug-In . SVG Version: 6.00 Build 0)  -->
<svg version="1.1" id="圖層_1" xmlns="http://www.w3.org/2000/svg" xmlns:xlink="http://www.w3.org/1999/xlink" x="0px" y="0px"
	 viewBox="0 0 20 15" style="enable-background:new 0 0 20 15;" xml:space="preserve">
<path d="M1,15c-0.6,0-1-0.4-1-1c0-0.6,0.4-1,1-1s1,0.4,1,1v0C2,14.5,1.6,15,1,15z M19,15H6.1c-0.6,0-1-0.4-1-1c0-0.6,0.4-1,1-1H19
	c0.6,0,1,0.4,1,1C20,14.5,19.6,15,19,15z M1,8.5c-0.6,0-1-0.4-1-1c0-0.6,0.4-1,1-1s1,0.4,1,1v0C2,8,1.6,8.5,1,8.5z M19,8.5H6.1
	c-0.6,0-1-0.4-1-1c0-0.6,0.4-1,1-1H19c0.6,0,1,0.4,1,1C20,8,19.6,8.5,19,8.5z M1,2C0.4,2,0,1.6,0,1s0.4-1,1-1s1,0.4,1,1v0
	C2,1.6,1.6,2,1,2z M19,2H6.1c-0.6,0-1-0.4-1-1s0.4-1,1-1H19c0.6,0,1,0.4,1,1S19.6,2,19,2z"/>
</svg>
