<?xml version="1.0" encoding="utf-8"?>
<!-- Generator: Adobe Illustrator 28.0.0, SVG Export Plug-In . SVG Version: 6.00 Build 0)  -->
<svg version="1.1" id="圖層_1" xmlns="http://www.w3.org/2000/svg" xmlns:xlink="http://www.w3.org/1999/xlink" x="0px" y="0px"
	 viewBox="0 0 20 18.4" style="enable-background:new 0 0 20 18.4;" xml:space="preserve">
<style type="text/css">
	.st0{fill:#FFFFFF;}
</style>
<path class="st0" d="M10,18.4l-1.4-1.3c-1.7-1.5-3.1-2.8-4.2-3.9s-2-2.1-2.6-3S0.6,8.5,0.4,7.8S0,6.3,0,5.5c0-1.6,0.5-2.9,1.6-3.9
	S3.9,0,5.5,0C6.4,0,7.2,0.2,8,0.6c0.8,0.4,1.5,0.9,2,1.6c0.6-0.7,1.2-1.2,2-1.6S13.6,0,14.5,0c1.6,0,2.9,0.5,3.9,1.6
	c1,1,1.6,2.4,1.6,3.9c0,0.8-0.1,1.5-0.4,2.2c-0.3,0.7-0.7,1.5-1.4,2.4s-1.5,1.9-2.6,3s-2.5,2.4-4.2,3.9L10,18.4z M10,15.7
	c1.6-1.4,2.9-2.7,3.9-3.7s1.9-1.9,2.4-2.7c0.6-0.8,1-1.4,1.2-2C17.9,6.7,18,6.1,18,5.5c0-1-0.3-1.8-1-2.5c-0.7-0.7-1.5-1-2.5-1
	c-0.8,0-1.5,0.2-2.2,0.7c-0.7,0.4-1.1,1-1.4,1.7H9.1C8.8,3.7,8.3,3.1,7.7,2.7S6.3,2,5.5,2C4.5,2,3.7,2.3,3,3S2,4.5,2,5.5
	c0,0.6,0.1,1.2,0.4,1.8c0.2,0.6,0.6,1.3,1.2,2S5,10.9,6.1,12S8.4,14.2,10,15.7z"/>
</svg>
