<?xml version="1.0" encoding="utf-8"?>
<!-- Generator: Adobe Illustrator 28.0.0, SVG Export Plug-In . SVG Version: 6.00 Build 0)  -->
<svg version="1.1" id="圖層_1" xmlns="http://www.w3.org/2000/svg" xmlns:xlink="http://www.w3.org/1999/xlink" x="0px" y="0px"
	 viewBox="0 0 16 20" style="enable-background:new 0 0 16 20;" xml:space="preserve">
<style type="text/css">
	.st0{fill:#D9D9D9;filter:url(#Adobe_OpacityMaskFilter);}
	.st1{mask:url(#mask0_125_1943_00000094589477823064753530000005874753635243906464_);}
	.st2{fill:#FFFFFF;}
</style>
<defs>
	<filter id="Adobe_OpacityMaskFilter" filterUnits="userSpaceOnUse" x="0" y="0" width="16" height="20">
		<feColorMatrix  type="matrix" values="1 0 0 0 0  0 1 0 0 0  0 0 1 0 0  0 0 0 1 0"/>
	</filter>
</defs>
<mask maskUnits="userSpaceOnUse" x="0" y="0" width="16" height="20" id="mask0_125_1943_00000094589477823064753530000005874753635243906464_">
	<rect x="-4" y="-2" class="st0" width="24" height="24"/>
</mask>
<g class="st1">
	<path class="st2" d="M3.5,20c-1,0-1.8-0.3-2.5-1s-1-1.5-1-2.5v-13c0-1,0.3-1.8,1-2.5s1.5-1,2.5-1H16v15c-0.4,0-0.8,0.1-1.1,0.4
		s-0.4,0.6-0.4,1.1s0.1,0.8,0.4,1.1S15.6,18,16,18v2H3.5z M2,13.3c0.2-0.1,0.5-0.2,0.7-0.2S3.2,13,3.5,13H4V2H3.5
		C3.1,2,2.7,2.1,2.4,2.4S2,3.1,2,3.5V13.3z M6,13h8V2H6V13z M3.5,18h9.3c-0.1-0.2-0.2-0.5-0.2-0.7c-0.1-0.2-0.1-0.5-0.1-0.8
		c0-0.3,0-0.5,0.1-0.8c0-0.2,0.1-0.5,0.2-0.7H3.5c-0.4,0-0.8,0.1-1.1,0.4S2,16.1,2,16.5c0,0.4,0.1,0.8,0.4,1.1
		C2.7,17.9,3.1,18,3.5,18z"/>
</g>
</svg>
