<?xml version="1.0" encoding="utf-8"?>
<!-- Generator: Adobe Illustrator 28.0.0, SVG Export Plug-In . SVG Version: 6.00 Build 0)  -->
<svg version="1.1" id="圖層_1" xmlns="http://www.w3.org/2000/svg" xmlns:xlink="http://www.w3.org/1999/xlink" x="0px" y="0px"
	 viewBox="0 0 25 25" style="enable-background:new 0 0 25 25;" xml:space="preserve">
<style type="text/css">
	.st0{fill:#FFFFFF;}
</style>
<path class="st0" d="M2.9,2.9c-0.6,0-1,0.4-1,1c0,0.6,0.4,1,1,1v-1V2.9z M5.2,3.9l1-0.3C6,3.2,5.6,2.9,5.2,2.9V3.9z M8.9,17.7L8,18
	c0.1,0.5,0.6,0.8,1.1,0.7L8.9,17.7z M20.4,16.3l0.1,1c0.4-0.1,0.8-0.4,0.9-0.8L20.4,16.3z M22.1,8l1,0.2c0.1-0.3,0-0.6-0.2-0.8
	C22.7,7.1,22.4,7,22.1,7V8z M6.3,8l-1,0.3L6.3,8z M2.9,3.9v1h2.3v-1v-1H2.9V3.9z M8.9,17.7l0.1,1l11.5-1.4l-0.1-1l-0.1-1L8.8,16.7
	L8.9,17.7z M20.4,16.3l1,0.2l1.7-8.3l-1-0.2l-1-0.2l-1.7,8.3L20.4,16.3z M5.2,3.9l-1,0.3l1.1,4l1-0.3l1-0.3l-1.1-4L5.2,3.9z M6.3,8
	l-1,0.3L8,18l1-0.3l1-0.3L7.2,7.7L6.3,8z M22.1,8V7H6.3v1v1h15.8V8z M12.5,21.5h-1c0,0.3-0.2,0.5-0.5,0.5v1v1c1.4,0,2.5-1.1,2.5-2.5
	H12.5z M11,23v-1c-0.3,0-0.5-0.2-0.5-0.5h-1h-1c0,1.4,1.1,2.5,2.5,2.5V23z M9.5,21.5h1c0-0.3,0.2-0.5,0.5-0.5v-1v-1
	c-1.4,0-2.5,1.1-2.5,2.5H9.5z M11,20v1c0.3,0,0.5,0.2,0.5,0.5h1h1c0-1.4-1.1-2.5-2.5-2.5V20z M20.5,21.5h-1c0,0.3-0.2,0.5-0.5,0.5v1
	v1c1.4,0,2.5-1.1,2.5-2.5H20.5z M19,23v-1c-0.3,0-0.5-0.2-0.5-0.5h-1h-1c0,1.4,1.1,2.5,2.5,2.5V23z M17.5,21.5h1
	c0-0.3,0.2-0.5,0.5-0.5v-1v-1c-1.4,0-2.5,1.1-2.5,2.5H17.5z M19,20v1c0.3,0,0.5,0.2,0.5,0.5h1h1c0-1.4-1.1-2.5-2.5-2.5V20z"/>
</svg>
